<svg id="Component_26_1" data-name="Component 26 – 1" xmlns="http://www.w3.org/2000/svg" width="14.838" height="15.5" viewBox="0 0 14.838 15.5">
  <path id="Path_16" data-name="Path 16" d="M13.906-4.906a6.427,6.427,0,0,0,0-2.187l1.313-.781a.336.336,0,0,0,.172-.187.412.412,0,0,0,.016-.25,7.757,7.757,0,0,0-1.719-2.937.464.464,0,0,0-.219-.125.353.353,0,0,0-.25.031l-1.312.781A5.984,5.984,0,0,0,10-11.656v-1.531a.4.4,0,0,0-.078-.234.347.347,0,0,0-.2-.141,7.971,7.971,0,0,0-3.437,0,.347.347,0,0,0-.2.141A.4.4,0,0,0,6-13.187v1.531a5.984,5.984,0,0,0-1.906,1.094l-1.312-.781a.353.353,0,0,0-.25-.031.464.464,0,0,0-.219.125A7.757,7.757,0,0,0,.594-8.312a.412.412,0,0,0,.016.25.336.336,0,0,0,.172.188l1.313.781a6.427,6.427,0,0,0,0,2.188L.781-4.125a.336.336,0,0,0-.172.188.412.412,0,0,0-.016.25A7.757,7.757,0,0,0,2.313-.75a.464.464,0,0,0,.219.125.353.353,0,0,0,.25-.031l1.313-.781A5.984,5.984,0,0,0,6-.344V1.188a.4.4,0,0,0,.078.234.347.347,0,0,0,.2.141,7.971,7.971,0,0,0,3.438,0,.347.347,0,0,0,.2-.141A.4.4,0,0,0,10,1.188V-.344a5.984,5.984,0,0,0,1.906-1.094l1.313.781a.353.353,0,0,0,.25.031.464.464,0,0,0,.219-.125,7.757,7.757,0,0,0,1.719-2.937.412.412,0,0,0-.016-.25.336.336,0,0,0-.172-.187ZM10.5-6a2.407,2.407,0,0,1-.734,1.766A2.407,2.407,0,0,1,8-3.5a2.407,2.407,0,0,1-1.766-.734A2.407,2.407,0,0,1,5.5-6a2.407,2.407,0,0,1,.734-1.766A2.407,2.407,0,0,1,8-8.5a2.407,2.407,0,0,1,1.766.734A2.407,2.407,0,0,1,10.5-6Z" transform="translate(-0.581 13.75)" fill="#403b44"/>
</svg>
