<svg id="Component_17_1" data-name="Component 17 – 1" xmlns="http://www.w3.org/2000/svg" width="18" height="16" viewBox="0 0 18 16">
  <path id="Path_25" data-name="Path 25" d="M12.594,2.594a.3.3,0,0,0-.437,0L5.313,9.438,5,12.313A.608.608,0,0,0,5.688,13l2.875-.312,6.844-6.844a.3.3,0,0,0,0-.437Zm5.063-.719A1.254,1.254,0,0,1,18,2.75a1.147,1.147,0,0,1-.344.844L16.531,4.719a.3.3,0,0,1-.437,0L13.281,1.906a.3.3,0,0,1,0-.437L14.406.344A1.147,1.147,0,0,1,15.25,0a1.254,1.254,0,0,1,.875.344ZM12,10.813a.3.3,0,0,1,.125-.25l1.25-1.25a.313.313,0,0,1,.391-.094A.342.342,0,0,1,14,9.563V14.5A1.494,1.494,0,0,1,12.5,16H1.5a1.447,1.447,0,0,1-1.062-.437A1.447,1.447,0,0,1,0,14.5V3.5A1.447,1.447,0,0,1,.438,2.438,1.447,1.447,0,0,1,1.5,2h8.938a.342.342,0,0,1,.344.234.313.313,0,0,1-.094.391L9.438,3.906A.338.338,0,0,1,9.188,4H2V14H12Z" fill="#403b44"/>
</svg>
