<svg id="Component_28_1" data-name="Component 28 – 1" xmlns="http://www.w3.org/2000/svg" width="22.5" height="18.005" viewBox="0 0 22.5 18.005">
  <defs>
    <style>
      .cls-1 {
        fill: #403b44;
      }
    </style>
  </defs>
  <path id="Path_18" data-name="Path 18" class="cls-1" d="M21.938,0A.542.542,0,0,1,22.5.563V1.688a.542.542,0,0,1-.562.563H16.875v-13.5H13.5V-13.5h3.938a1.6,1.6,0,0,1,1.2.51,1.686,1.686,0,0,1,.492,1.213V0ZM10.969-15.715a1.042,1.042,0,0,1,.967.211,1.116,1.116,0,0,1,.439.914V2.25H.563A.542.542,0,0,1,0,1.688V.563A.542.542,0,0,1,.563,0H3.375V-12.832a1.118,1.118,0,0,1,.246-.7,1.176,1.176,0,0,1,.6-.422ZM9.281-5.625a.725.725,0,0,0,.6-.334,1.3,1.3,0,0,0,.246-.791,1.3,1.3,0,0,0-.246-.791.725.725,0,0,0-.6-.334.725.725,0,0,0-.6.334,1.3,1.3,0,0,0-.246.791,1.3,1.3,0,0,0,.246.791A.725.725,0,0,0,9.281-5.625Z" transform="translate(0 15.755)"/>
</svg>
