<svg id="Component_27_1" data-name="Component 27 – 1" xmlns="http://www.w3.org/2000/svg" width="20.25" height="15.75" viewBox="0 0 20.25 15.75">
  <defs>
    <style>
      .cls-1 {
        fill: #403b44;
      }
    </style>
  </defs>
  <path id="Path_17" data-name="Path 17" class="cls-1" d="M18.563-14.625a1.627,1.627,0,0,1,1.2.492,1.627,1.627,0,0,1,.492,1.2V-.562a1.627,1.627,0,0,1-.492,1.2,1.627,1.627,0,0,1-1.2.492H1.688A1.627,1.627,0,0,1,.492.633,1.627,1.627,0,0,1,0-.562V-12.937a1.627,1.627,0,0,1,.492-1.2,1.627,1.627,0,0,1,1.2-.492Zm0,14.063V-12.937H1.688V-.562ZM7.313-6.75A2.162,2.162,0,0,1,5.73-7.418,2.162,2.162,0,0,1,5.063-9a2.162,2.162,0,0,1,.668-1.582,2.162,2.162,0,0,1,1.582-.668,2.162,2.162,0,0,1,1.582.668A2.162,2.162,0,0,1,9.563-9a2.162,2.162,0,0,1-.668,1.582A2.162,2.162,0,0,1,7.313-6.75ZM4.148-2.25A.816.816,0,0,1,3.6-2.443a.6.6,0,0,1-.229-.475v-.668a1.847,1.847,0,0,1,.686-1.441,2.453,2.453,0,0,1,1.67-.6,1.376,1.376,0,0,1,.457.105,3.754,3.754,0,0,0,1.125.176A3.754,3.754,0,0,0,8.438-5.52a1.673,1.673,0,0,1,.457-.105,2.453,2.453,0,0,1,1.67.6,1.847,1.847,0,0,1,.686,1.441v.668a.6.6,0,0,1-.229.475.816.816,0,0,1-.545.193ZM12.656-4.5a.269.269,0,0,1-.193-.088.269.269,0,0,1-.088-.193v-.562a.269.269,0,0,1,.088-.193.269.269,0,0,1,.193-.088h3.938a.269.269,0,0,1,.193.088.269.269,0,0,1,.088.193v.563a.269.269,0,0,1-.088.193.269.269,0,0,1-.193.088Zm0-2.25a.269.269,0,0,1-.193-.088.269.269,0,0,1-.088-.193v-.562a.269.269,0,0,1,.088-.193.269.269,0,0,1,.193-.088h3.938a.269.269,0,0,1,.193.088.269.269,0,0,1,.088.193v.563a.269.269,0,0,1-.088.193.269.269,0,0,1-.193.088Zm0-2.25a.269.269,0,0,1-.193-.088.269.269,0,0,1-.088-.193v-.562a.269.269,0,0,1,.088-.193.269.269,0,0,1,.193-.088h3.938a.269.269,0,0,1,.193.088.269.269,0,0,1,.088.193v.563a.269.269,0,0,1-.088.193A.269.269,0,0,1,16.594-9Z" transform="translate(0 14.625)"/>
</svg>
